<?xml version="1.0" encoding="UTF-8"?>
<!DOCTYPE svg PUBLIC "-//W3C//DTD SVG 1.1//EN" "http://www.w3.org/Graphics/SVG/1.1/DTD/svg11.dtd">
<svg xmlns="http://www.w3.org/2000/svg" version="1.1" width="291px" height="264px" style="shape-rendering:geometricPrecision; text-rendering:geometricPrecision; image-rendering:optimizeQuality; fill-rule:evenodd; clip-rule:evenodd" xmlns:xlink="http://www.w3.org/1999/xlink">
<g><path style="opacity:1" fill="#000000" d="M 80.5,2.5 C 86.5,2.5 92.5,2.5 98.5,2.5C 98.5,5.16667 98.5,7.83333 98.5,10.5C 95.3795,10.4618 92.3795,9.79516 89.5,8.5C 84.5,10.1667 79.5,11.8333 74.5,13.5C 70.5263,17.7796 67.8596,22.7796 66.5,28.5C 68.8022,32.1508 70.1356,36.1508 70.5,40.5C 73.2469,40.8134 75.9135,40.48 78.5,39.5C 128.225,13.6926 177.558,14.3593 226.5,41.5C 256.733,60.4031 275.066,87.4031 281.5,122.5C 284.759,152.137 277.425,178.803 259.5,202.5C 258.501,218.486 258.167,234.486 258.5,250.5C 256.5,250.5 254.5,250.5 252.5,250.5C 252.833,237.15 252.499,223.817 251.5,210.5C 223.86,238.473 190.193,252.473 150.5,252.5C 106.753,251.79 70.4196,235.124 41.5,202.5C 10.8333,158.5 10.8333,114.5 41.5,70.5C 49.2331,62.0969 57.5664,54.4302 66.5,47.5C 63.8545,45.8681 62.5211,43.5348 62.5,40.5C 60.5082,40.6715 58.8415,40.0049 57.5,38.5C 56.1667,33.8333 56.1667,29.1667 57.5,24.5C 60.9175,18.6631 64.5842,12.9964 68.5,7.5C 72.9452,6.36761 76.9452,4.70095 80.5,2.5 Z M 134.5,30.5 C 145.187,30.168 155.854,30.5013 166.5,31.5C 175.736,33.488 185.069,34.488 194.5,34.5C 194.5,35.8333 194.5,37.1667 194.5,38.5C 227.13,48.7907 250.797,69.4573 265.5,100.5C 276.197,129.415 274.197,157.415 259.5,184.5C 258.501,172.518 258.168,160.518 258.5,148.5C 256.5,148.5 254.5,148.5 252.5,148.5C 252.833,164.514 252.499,180.514 251.5,196.5C 249.423,197.988 248.423,199.988 248.5,202.5C 247.022,202.238 245.689,202.571 244.5,203.5C 214.048,233.652 177.381,246.319 134.5,241.5C 89.1032,235.992 56.1032,212.992 35.5,172.5C 20.1808,123.488 33.1808,83.8211 74.5,53.5C 78.6345,52.4287 82.3011,53.4287 85.5,56.5C 89.9011,63.6328 92.9011,71.2995 94.5,79.5C 94.2138,83.8019 92.2138,87.1352 88.5,89.5C 79.3502,95.1894 69.3502,97.8561 58.5,97.5C 57.8333,98.1667 57.1667,98.8333 56.5,99.5C 58.0049,100.842 58.6715,102.508 58.5,104.5C 66.4799,103.503 74.4799,102.503 82.5,101.5C 90.0486,98.8962 96.382,94.5629 101.5,88.5C 102.859,74.6039 99.5259,61.9372 91.5,50.5C 89.9991,49.2485 88.3325,48.2485 86.5,47.5C 87.1667,46.8333 87.8333,46.1667 88.5,45.5C 103.482,38.6153 118.815,33.6153 134.5,30.5 Z M 136.5,84.5 C 138.32,87.5375 139.986,90.8709 141.5,94.5C 144.072,103.692 145.739,113.025 146.5,122.5C 137.833,122.5 129.167,122.5 120.5,122.5C 122.423,115.986 125.423,109.986 129.5,104.5C 132.419,98.0043 134.752,91.3376 136.5,84.5 Z"/></g>
<g><path style="opacity:1" fill="#000000" d="M 134.5,66.5 C 137.144,66.1601 139.477,66.8267 141.5,68.5C 146.748,84.1593 150.748,100.159 153.5,116.5C 155.107,121.988 157.107,127.322 159.5,132.5C 160.833,135.167 160.833,137.833 159.5,140.5C 158.158,142.005 156.492,142.672 154.5,142.5C 152.59,138.009 151.256,133.342 150.5,128.5C 139.147,128.168 127.814,128.501 116.5,129.5C 115.002,132.967 114.002,136.634 113.5,140.5C 111.477,142.173 109.144,142.84 106.5,142.5C 107.108,136.456 108.108,130.456 109.5,124.5C 113.658,115.515 118.325,106.848 123.5,98.5C 127.772,87.9744 131.439,77.3078 134.5,66.5 Z M 136.5,84.5 C 134.752,91.3376 132.419,98.0043 129.5,104.5C 125.423,109.986 122.423,115.986 120.5,122.5C 129.167,122.5 137.833,122.5 146.5,122.5C 145.739,113.025 144.072,103.692 141.5,94.5C 139.986,90.8709 138.32,87.5375 136.5,84.5 Z"/></g>
<g><path style="opacity:1" fill="#000000" d="M 192.5,120.5 C 194.5,120.5 196.5,120.5 198.5,120.5C 199.331,125.005 201.998,128.005 206.5,129.5C 210.404,133.648 214.071,137.981 217.5,142.5C 220.825,139.184 222.492,135.184 222.5,130.5C 225.788,130.073 228.788,130.74 231.5,132.5C 232.5,151.822 232.833,171.155 232.5,190.5C 230.508,190.672 228.842,190.005 227.5,188.5C 226.833,178.5 226.167,168.5 225.5,158.5C 224.833,156.5 224.167,154.5 223.5,152.5C 222.571,153.689 222.238,155.022 222.5,156.5C 220.508,156.328 218.842,156.995 217.5,158.5C 215.413,156.255 214.079,153.588 213.5,150.5C 208.088,145.759 203.421,140.426 199.5,134.5C 198.833,135.833 198.167,137.167 197.5,138.5C 196.5,156.488 196.167,174.488 196.5,192.5C 194.5,192.5 192.5,192.5 190.5,192.5C 189.876,168.339 190.543,144.339 192.5,120.5 Z"/></g>
</svg>
